<?xml version="1.0" encoding="UTF-8" standalone="no"?>
<!DOCTYPE svg PUBLIC "-//W3C//DTD SVG 1.1//EN" "http://www.w3.org/Graphics/SVG/1.1/DTD/svg11.dtd">
<svg width="100%" height="100%" viewBox="0 0 585 583" version="1.1" xmlns="http://www.w3.org/2000/svg" xmlns:xlink="http://www.w3.org/1999/xlink" xml:space="preserve" xmlns:serif="http://www.serif.com/" style="fill-rule:evenodd;clip-rule:evenodd;stroke-linecap:round;stroke-linejoin:round;stroke-miterlimit:1.5;">
    <g transform="matrix(1,0,0,1,-707,-466)">
        <rect id="_11" serif:id="11" x="792.998" y="550.874" width="138.962" height="138.962" style="fill:white;stroke:black;stroke-width:6.25px;"/>
        <g id="_21" serif:id="21" transform="matrix(1,0,0,1,0,138.962)">
            <rect x="792.998" y="550.874" width="138.962" height="138.962" style="fill:white;stroke:black;stroke-width:6.25px;"/>
        </g>
        <g id="_20" serif:id="20" transform="matrix(0.520197,0,0,1,308.195,138.962)">
            <path d="M931.96,550.874L931.96,689.836L792.998,678.597L792.998,562.812L931.96,550.874Z" style="fill:white;stroke:black;stroke-width:7.84px;"/>
        </g>
        <g id="_42" serif:id="42" transform="matrix(3.18529e-17,-0.520197,1,6.12323e-17,381.086,1452.56)">
            <path d="M931.96,550.874L931.96,689.836L792.998,678.597L792.998,562.812L931.96,550.874Z" style="fill:white;stroke:black;stroke-width:7.84px;"/>
        </g>
        <g id="_24" serif:id="24" transform="matrix(-0.520197,0,0,1,1694.69,138.962)">
            <path d="M931.96,550.874L931.96,689.836L792.998,678.597L792.998,562.812L931.96,550.874Z" style="fill:white;stroke:black;stroke-width:7.84px;"/>
        </g>
        <g id="_02" serif:id="02" transform="matrix(-3.18529e-17,0.520197,1,6.12323e-17,381.086,66.0713)">
            <path d="M931.96,550.874L931.96,689.836L792.998,678.597L792.998,562.812L931.96,550.874Z" style="fill:white;stroke:black;stroke-width:7.84px;"/>
        </g>
        <g id="_31" serif:id="31" transform="matrix(1,0,0,1,0,277.923)">
            <rect x="792.998" y="550.874" width="138.962" height="138.962" style="fill:white;stroke:black;stroke-width:6.25px;"/>
        </g>
        <g id="_30" serif:id="30" transform="matrix(0.520197,0,0,1,308.195,277.923)">
            <path d="M931.96,550.874L931.96,689.836L792.998,678.257L792.998,546.974L931.96,550.874Z" style="fill:white;stroke:black;stroke-width:7.84px;"/>
        </g>
        <g id="_43" serif:id="43" transform="matrix(3.18529e-17,-0.520197,1,6.12323e-17,520.047,1452.56)">
            <path d="M931.96,550.874L931.96,689.836L792.998,678.257L792.998,546.974L931.96,550.874Z" style="fill:white;stroke:black;stroke-width:7.84px;"/>
        </g>
        <g id="_34" serif:id="34" transform="matrix(-0.520197,0,0,1,1694.69,277.923)">
            <path d="M931.96,550.874L931.96,689.836L792.998,678.257L792.998,546.974L931.96,550.874Z" style="fill:white;stroke:black;stroke-width:7.84px;"/>
        </g>
        <g id="_03" serif:id="03" transform="matrix(-3.18529e-17,0.520197,1,6.12323e-17,520.047,66.0713)">
            <path d="M931.96,550.874L931.96,689.836L792.998,678.257L792.998,546.974L931.96,550.874Z" style="fill:white;stroke:black;stroke-width:7.84px;"/>
        </g>
        <g id="_10" serif:id="10" transform="matrix(0.520197,0,0,-1,308.195,1240.91)">
            <path d="M931.96,550.874L931.96,689.836L792.998,678.257L792.998,546.974L931.96,550.874Z" style="fill:white;stroke:black;stroke-width:7.84px;"/>
        </g>
        <g id="_41" serif:id="41" transform="matrix(3.18529e-17,-0.520197,-1,-6.12323e-17,1483.03,1452.56)">
            <path d="M931.96,550.874L931.96,689.836L792.998,678.257L792.998,546.974L931.96,550.874Z" style="fill:white;stroke:black;stroke-width:7.84px;"/>
        </g>
        <g id="_14" serif:id="14" transform="matrix(-0.520197,0,0,-1,1694.69,1240.91)">
            <path d="M931.96,550.874L931.96,689.836L792.998,678.257L792.998,546.974L931.96,550.874Z" style="fill:white;stroke:black;stroke-width:7.84px;"/>
        </g>
        <g id="_01" serif:id="01" transform="matrix(-3.18529e-17,0.520197,-1,-6.12323e-17,1483.03,66.0713)">
            <path d="M931.96,550.874L931.96,689.836L792.998,678.257L792.998,546.974L931.96,550.874Z" style="fill:white;stroke:black;stroke-width:7.84px;"/>
        </g>
        <g id="_12" serif:id="12" transform="matrix(1,0,0,1,138.962,0)">
            <rect x="792.998" y="550.874" width="138.962" height="138.962" style="fill:white;stroke:black;stroke-width:6.25px;"/>
        </g>
        <g id="_22" serif:id="22" transform="matrix(1,0,0,1,138.962,138.962)">
            <rect x="792.998" y="550.874" width="138.962" height="138.962" style="fill:white;stroke:black;stroke-width:6.25px;"/>
        </g>
        <g id="_32" serif:id="32" transform="matrix(1,0,0,1,138.962,277.923)">
            <rect x="792.998" y="550.874" width="138.962" height="138.962" style="fill:white;stroke:black;stroke-width:6.25px;"/>
        </g>
        <g id="_13" serif:id="13" transform="matrix(1,0,0,1,277.923,0)">
            <rect x="792.998" y="550.874" width="138.962" height="138.962" style="fill:white;stroke:black;stroke-width:6.25px;"/>
        </g>
        <g id="_23" serif:id="23" transform="matrix(1,0,0,1,277.923,138.962)">
            <rect x="792.998" y="550.874" width="138.962" height="138.962" style="fill:white;stroke:black;stroke-width:6.25px;"/>
        </g>
        <g id="_33" serif:id="33" transform="matrix(1,0,0,1,277.923,277.923)">
            <rect x="792.998" y="550.874" width="138.962" height="138.962" style="fill:white;stroke:black;stroke-width:6.25px;"/>
        </g>
    </g>
</svg>
